<svg aria-hidden="true" style="position: absolute; width: 0; height: 0; overflow: hidden;" version="1.1" xmlns="http://www.w3.org/2000/svg" xmlns:xlink="http://www.w3.org/1999/xlink">
<defs>
<symbol id="icon-facebook" viewBox="0 0 32 32">
<path fill="#b0b8bc" style="fill: var(--color1, #b0b8bc)" d="M18 11v-4c0-1.104 0.896-2 2-2h2v-5h-4c-3.314 0-6 2.686-6 6v5h-4v5h4v16h6v-16h4l2-5h-6z"></path>
</symbol>
<symbol id="icon-Instagram" viewBox="0 0 32 32">
<path fill="#b0b8bc" style="fill: var(--color1, #b0b8bc)" d="M10 0h12c5.522 0 10 4.478 10 10v12c0 5.522-4.478 10-10 10h-12c-5.522 0-10-4.478-10-10v-12c0-5.522 4.478-10 10-10zM22 29c3.86 0 7-3.14 7-7v-12c0-3.86-3.14-7-7-7h-12c-3.86 0-7 3.14-7 7v12c0 3.86 3.14 7 7 7h12zM8 16c0-4.418 3.582-8 8-8s8 3.582 8 8c0 4.418-3.582 8-8 8s-8-3.582-8-8zM11 16c0 2.756 2.244 5 5 5s5-2.244 5-5c0-2.758-2.244-5-5-5s-5 2.242-5 5zM25.666 7.4c0 0.589-0.477 1.066-1.066 1.066s-1.066-0.477-1.066-1.066 0.477-1.066 1.066-1.066c0.589 0 1.066 0.477 1.066 1.066z"></path>
</symbol>
<symbol id="icon-linkedin" viewBox="0 0 32 32">
<path fill="#b0b8bc" style="fill: var(--color1, #b0b8bc)" d="M7 3.5c0 1.933-1.567 3.5-3.5 3.5s-3.5-1.567-3.5-3.5c0-1.933 1.567-3.5 3.5-3.5s3.5 1.567 3.5 3.5zM0 10h7.156v22h-7.156v-22zM26.6 10.242c-0.009-0.003-0.018-0.006-0.027-0.009-0.050-0.016-0.099-0.033-0.153-0.048-0.096-0.022-0.192-0.040-0.29-0.056-0.38-0.076-0.796-0.13-1.284-0.13-4.172 0-6.818 3.034-7.69 4.206v-4.206h-7.156v22h7.156v-12c0 0 5.408-7.532 7.69-2v14h7.154v-14.846c0-3.324-2.278-6.094-5.352-6.896-0.016-0.005-0.032-0.010-0.048-0.016z"></path>
</symbol>
<symbol id="icon-twitter" viewBox="0 0 32 32">
<path fill="#b0b8bc" style="fill: var(--color1, #b0b8bc)" d="M32 5.745c-1.19 0.522-2.458 0.868-3.78 1.036 1.36-0.812 2.398-2.088 2.886-3.626-1.268 0.756-2.668 1.29-4.16 1.588-1.204-1.282-2.92-2.076-4.792-2.076-3.632 0-6.556 2.948-6.556 6.562 0 0.52 0.044 1.020 0.152 1.496-5.454-0.266-10.28-2.88-13.522-6.862-0.566 0.982-0.898 2.106-0.898 3.316 0 2.272 1.17 4.286 2.914 5.452-1.054-0.020-2.088-0.326-2.964-0.808 0 0.020 0 0.046 0 0.072 0 3.188 2.274 5.836 5.256 6.446-0.534 0.146-1.116 0.216-1.72 0.216-0.42 0-0.844-0.024-1.242-0.112 0.85 2.598 3.262 4.508 6.13 4.57-2.232 1.746-5.066 2.798-8.134 2.798-0.538 0-1.054-0.024-1.57-0.090 2.906 1.874 6.35 2.944 10.064 2.944 12.072 0 18.672-10 18.672-18.668 0-0.29-0.010-0.57-0.024-0.848 1.302-0.924 2.396-2.078 3.288-3.406z"></path>
</symbol>
<symbol id="icon-yutube" viewBox="0 0 32 32">
<path fill="#b0b8bc" style="fill: var(--color1, #b0b8bc)" d="M26.912 5.518c1.918 0.108 2.86 0.392 3.728 1.936 0.904 1.542 1.36 4.198 1.36 8.876v0.016c0 4.656-0.456 7.332-1.358 8.858-0.868 1.544-1.81 1.824-3.728 1.954-1.918 0.11-6.736 0.176-10.91 0.176-4.182 0-9.002-0.066-10.918-0.178-1.914-0.13-2.856-0.41-3.732-1.954-0.894-1.526-1.354-4.202-1.354-8.858v-0.016c0-4.676 0.46-7.332 1.354-8.874 0.876-1.546 1.82-1.828 3.734-1.938 1.914-0.128 6.734-0.182 10.916-0.182 4.174 0 8.992 0.054 10.908 0.184zM22 16.334l-10-6v12l10-6z"></path>
</symbol>
</defs>
</svg>
